# File created by Luuv tsx 1.1.5
# Created on: Sat Oct 14 23:49:02 2006 0x04ca6cb0
# Vertices: 32
# Texture vertices: 92
# Normals: 32
# Faces: 64

mtllib thing.mtl
v 0.578704 -0.578704 -0.578704
v 0.578704 0.578704 -0.578704
v -0.578704 -0.578704 -0.578704
v -0.578704 0.578704 -0.578704
v 0.578704 -0.578704 0.578704
v -0.578704 -0.578704 0.578704
v -0.578704 0.578704 0.578704
v 0.578704 0.578704 0.578704
v 0.279082 0.279082 -0.578704
v 0.279082 0.279082 0.578704
v -0.279082 0.279082 -0.578704
v -0.279082 0.279082 0.578704
v -0.279082 -0.279082 -0.578704
v -0.279082 -0.279082 0.578704
v 0.279082 -0.279082 0.578704
v 0.279082 -0.279082 -0.578704
v 0.279082 0.578704 0.279082
v -0.279082 0.578704 0.279082
v -0.279082 0.578704 -0.279082
v 0.279082 0.578704 -0.279082
v 0.279082 1.029081 -0.279082
v -0.279082 1.029081 -0.279082
v -0.279082 1.029082 0.279081
v 0.279082 1.029082 0.279082
v 0.279082 -0.578704 0.279082
v -0.279082 -0.578704 0.279082
v -0.279082 -0.578704 -0.279082
v 0.279082 -0.578704 -0.279082
v 0.279082 -1.029082 -0.279081
v -0.279082 -1.029082 -0.279082
v 0.279082 -1.029081 0.279082
v -0.279082 -1.029081 0.279082

vt 0.000000 0.333333
vt 0.250000 0.000000
vt 1.000000 0.333333
vt 1.000000 0.666667
vt 0.000000 0.666667
vt 0.250000 1.000000
vt 0.250000 0.333333
vt 0.250000 0.666667
vt 0.500000 0.000000
vt 0.750000 0.333333
vt 0.500000 0.333333
vt 0.500000 0.666667
vt 0.750000 0.666667
vt 0.500000 1.000000
vt 0.416862 0.000000
vt 0.000000 0.333333
vt 0.916862 0.333333
vt 0.000000 0.333333
vt 0.333138 0.333333
vt 0.000000 0.333333
vt 0.416862 0.333333
vt 0.000000 0.333333
vt 0.333138 0.666667
vt 0.000000 0.333333
vt 0.416862 0.666667
vt 0.000000 0.333333
vt 0.333138 1.000000
vt 0.000000 0.333333
vt 0.833138 0.666667
vt 0.000000 0.333333
vt 0.064718 0.419625
vt 0.000000 0.333333
vt 0.916862 0.666667
vt 0.685282 0.580376
vt 0.000000 0.333333
vt 0.833138 0.333333
vt 0.185282 0.419625
vt 0.000000 0.333333
vt 0.333138 0.000000
vt 0.185282 0.580376
vt 0.000000 0.333333
vt 0.064718 0.580376
vt 0.000000 0.333333
vt 0.685282 0.419625
vt 0.000000 0.333333
vt 0.564718 0.580376
vt 0.000000 0.333333
vt 0.416862 1.000000
vt 0.564718 0.419625
vt 0.000000 0.333333
vt 0.000000 0.666667
vt 0.250000 1.000000
vt 0.250000 0.397702
vt 0.250000 0.666667
vt 0.750000 0.397702
vt 0.500000 0.397702
vt 0.500000 0.666667
vt 0.750000 0.666667
vt 0.500000 1.000000
vt 0.000000 0.397702
vt 1.000000 0.666667
vt 0.435282 0.913709
vt 0.000000 0.333333
vt 1.000000 0.397702
vt 1.000000 0.397702
vt 0.314718 0.913709
vt 0.000000 0.333333
vt 0.314718 0.752958
vt 0.000000 0.333333
vt 0.435282 0.752958
vt 0.000000 0.333333
vt 0.000000 0.333333
vt 0.250000 0.000000
vt 1.000000 0.333333
vt 1.000000 0.602298
vt 1.000000 0.602298
vt 0.250000 0.333333
vt 0.500000 0.000000
vt 0.750000 0.333333
vt 0.500000 0.333333
vt 0.250000 0.602298
vt 0.500000 0.602298
vt 0.750000 0.602298
vt 0.314718 0.086291
vt 0.000000 0.333333
vt 0.314718 0.247042
vt 0.000000 0.333333
vt 0.000000 0.602298
vt 0.435282 0.086291
vt 0.000000 0.333333
vt 0.435282 0.247042
vt 0.000000 0.333333

vn 0.577350 -0.577350 -0.577350
vn 0.577350 0.577350 -0.577350
vn -0.577350 -0.577350 -0.577350
vn -0.577350 0.577350 -0.577350
vn 0.577350 -0.577350 0.577350
vn -0.577350 -0.577350 0.577350
vn -0.577350 0.577350 0.577350
vn 0.577350 0.577350 0.577350
vn -0.301511 -0.301511 -0.904534
vn -0.301511 -0.301511 0.904534
vn 0.301511 -0.301511 -0.904534
vn 0.301511 -0.301511 0.904534
vn 0.301511 0.301511 -0.904534
vn 0.301511 0.301511 0.904534
vn -0.301511 0.301511 0.904534
vn -0.301511 0.301511 -0.904534
vn 0.301511 0.904534 0.301511
vn -0.301511 0.904534 0.301511
vn -0.301511 0.904534 -0.301511
vn 0.301511 0.904534 -0.301511
vn 0.577350 0.577350 -0.577350
vn -0.577350 0.577350 -0.577350
vn -0.577350 0.577350 0.577350
vn 0.577350 0.577350 0.577350
vn 0.301511 -0.904534 0.301511
vn -0.301511 -0.904534 0.301511
vn -0.301511 -0.904534 -0.301511
vn 0.301511 -0.904534 -0.301511
vn 0.577350 -0.577350 -0.577350
vn -0.577350 -0.577350 -0.577350
vn 0.577350 -0.577350 0.577350
vn -0.577350 -0.577350 0.577350

mtllib thing.mtl

g Default
s 1
usemtl Cube,2
f 16/31/16 1/1/1 3/7/3
f 2/5/2 1/1/1 16/31/16
f 13/37/13 16/31/16 3/7/3
f 13/37/13 3/7/3 4/8/4
f 11/40/11 13/37/13 4/8/4
f 11/40/11 4/8/4 2/5/2
f 9/42/9 11/40/11 2/5/2
f 16/31/16 9/42/9 2/5/2
f 28/84/28 1/2/1 5/9/5
f 3/7/3 1/2/1 28/84/28
f 25/89/25 28/84/28 5/9/5
f 25/89/25 5/9/5 6/11/6
f 26/91/26 25/89/25 6/11/6
f 26/91/26 6/11/6 3/7/3
f 27/86/27 26/91/26 3/7/3
f 28/84/28 27/86/27 3/7/3
f 7/12/7 4/8/4 3/7/3
f 6/11/6 7/12/7 3/7/3
f 20/66/20 2/6/2 4/8/4
f 8/14/8 2/6/2 20/66/20
f 19/68/19 20/66/20 4/8/4
f 19/68/19 4/8/4 7/12/7
f 18/70/18 19/68/19 7/12/7
f 18/70/18 7/12/7 8/14/8
f 17/62/17 18/70/18 8/14/8
f 20/66/20 17/62/17 8/14/8
f 6/11/6 5/10/5 15/44/15
f 15/44/15 5/10/5 8/13/8
f 10/34/10 15/44/15 8/13/8
f 10/34/10 8/13/8 7/12/7
f 12/46/12 10/34/10 7/12/7
f 12/46/12 7/12/7 6/11/6
f 14/49/14 12/46/12 6/11/6
f 15/44/15 14/49/14 6/11/6
f 8/13/8 5/10/5 1/3/1
f 2/4/2 8/13/8 1/3/1
f 16/17/16 15/36/15 10/29/10
f 9/33/9 16/17/16 10/29/10
f 12/25/12 11/23/11 9/27/9
f 10/48/10 12/25/12 9/27/9
f 14/21/14 15/15/15 16/39/16
f 13/19/13 14/21/14 16/39/16
f 12/25/12 14/21/14 13/19/13
f 11/23/11 12/25/12 13/19/13
f 22/54/22 21/51/21 20/60/20
f 19/53/19 22/54/22 20/60/20
f 23/57/23 22/54/22 19/53/19
f 18/56/18 23/57/23 19/53/19
f 23/57/23 24/59/24 21/52/21
f 22/54/22 23/57/23 21/52/21
f 24/58/24 17/55/17 20/64/20
f 21/61/21 24/58/24 20/64/20
f 23/57/23 18/56/18 17/55/17
f 24/58/24 23/57/23 17/55/17
f 32/80/32 30/77/30 29/73/29
f 31/78/31 32/80/32 29/73/29
f 26/82/26 32/80/32 31/79/31
f 25/83/25 26/82/26 31/79/31
f 25/83/25 31/79/31 29/74/29
f 28/75/28 25/83/25 29/74/29
f 27/81/27 28/88/28 29/72/29
f 30/77/30 27/81/27 29/72/29
f 26/82/26 27/81/27 30/77/30
f 32/80/32 26/82/26 30/77/30

# The end.
